<svg xmlns="http://www.w3.org/2000/svg" version="1.1" xmlns:xlink="http://www.w3.org/1999/xlink" width="300" height="300"><svg width="300" height="300" viewBox="0 0 300 300" fill="none" xmlns="http://www.w3.org/2000/svg">
<rect width="300" height="300" rx="38" fill="#0B1220"></rect>
<path d="M137.809 141.054C133.358 147.173 131.935 151.1 130.494 158.614C130.671 163.898 131.26 167.003 132.862 169.679L135.371 172.861C134.338 171.793 133.516 170.772 132.862 169.679L129.101 164.91C124.969 163.912 123.662 167.418 121.787 175.512C122.637 189.2 124.614 193.702 129.101 199.699L155.573 205C176.519 196.373 179.518 189.129 177.865 172.861L170.551 184.789C176.225 164.948 174.444 155.032 161.494 139.729V137.078C165.276 134.317 168.364 134.003 175.427 135.422C172.778 132.958 171.031 131.929 167.416 130.783C171.752 130.46 174.516 130.657 181 132.771C176.77 129.511 174.643 128.15 171.944 127.801C175.061 127.489 176.674 126.872 179.258 124.819C169.632 122.291 178.474 122.354 179.258 121.175C175.469 119.538 173.38 118.598 172.989 114.88C173.594 113.32 172.785 113.119 170.551 113.223C174.585 107.643 175.131 103.664 172.989 95C169.296 98.3841 167.38 99.6273 164.281 100.633C160.457 102.707 159.05 104.042 158.708 106.928C153.752 103.746 150.075 103.113 140.944 105.271C140.064 102.589 138.951 101.274 135.719 99.3072C133.177 98.3921 131.733 97.4642 129.101 95C127.603 103.092 127.876 106.231 129.101 110.904C126.816 114.206 126.407 116.182 126.663 119.849C124.011 119.948 123.038 119.047 121.787 116.536C121.616 119.274 122.655 120.726 126.663 123.163C123.67 124.242 121.993 124.058 119 123.163C122.707 126.135 124.889 127.126 129.101 126.807C124.97 128.224 122.957 129.05 121.787 130.783C125.558 129.335 128.06 129.785 132.584 130.783C134.871 134.884 136.027 136.343 137.809 137.078V141.054Z" fill="#00D4FE"></path>
<mask id="SvgjsMask1008" maskUnits="userSpaceOnUse" x="199" y="158" width="57" height="74" fill="black">
<rect fill="white" x="199" y="158" width="57" height="74"></rect>
<path d="M254.056 198.048L200.296 230.048V217.504L237.672 194.848L200.296 171.808V159.776L254.056 192.16V198.048Z"></path>
</mask>
<path d="M254.056 198.048L200.296 230.048V217.504L237.672 194.848L200.296 171.808V159.776L254.056 192.16V198.048Z" fill="#00D4FE"></path>
<path d="M254.056 198.048L254.567 198.907L255.056 198.617V198.048H254.056ZM200.296 230.048H199.296V231.807L200.807 230.907L200.296 230.048ZM200.296 217.504L199.778 216.649L199.296 216.941V217.504H200.296ZM237.672 194.848L238.19 195.703L239.589 194.855L238.197 193.997L237.672 194.848ZM200.296 171.808H199.296V172.366L199.771 172.659L200.296 171.808ZM200.296 159.776L200.812 158.919L199.296 158.006V159.776H200.296ZM254.056 192.16H255.056V191.595L254.572 191.303L254.056 192.16ZM254.056 198.048L253.545 197.189L199.785 229.189L200.296 230.048L200.807 230.907L254.567 198.907L254.056 198.048ZM200.296 230.048H201.296V217.504H200.296H199.296V230.048H200.296ZM200.296 217.504L200.814 218.359L238.19 195.703L237.672 194.848L237.154 193.993L199.778 216.649L200.296 217.504ZM237.672 194.848L238.197 193.997L200.821 170.957L200.296 171.808L199.771 172.659L237.147 195.699L237.672 194.848ZM200.296 171.808H201.296V159.776H200.296H199.296V171.808H200.296ZM200.296 159.776L199.78 160.633L253.54 193.017L254.056 192.16L254.572 191.303L200.812 158.919L200.296 159.776ZM254.056 192.16H253.056V198.048H254.056H255.056V192.16H254.056Z" fill="#00D4FE" mask="url(#path-3-outside-1_53_24)"></path>
<mask id="SvgjsMask1007" maskUnits="userSpaceOnUse" x="45" y="71" width="56" height="74" fill="black">
<rect fill="white" x="45" y="71" width="56" height="74"></rect>
<path d="M46.224 105.16L99.984 72.776V84.808L62.608 107.848L99.984 130.504V143.048L46.224 111.048V105.16Z"></path>
</mask>
<path d="M46.224 105.16L99.984 72.776V84.808L62.608 107.848L99.984 130.504V143.048L46.224 111.048V105.16Z" fill="#00D4FE"></path>
<path d="M46.224 105.16L45.708 104.303L45.224 104.595V105.16H46.224ZM99.984 72.776H100.984V71.0062L99.468 71.9194L99.984 72.776ZM99.984 84.808L100.509 85.6593L100.984 85.3663V84.808H99.984ZM62.608 107.848L62.0833 106.997L60.6907 107.855L62.0896 108.703L62.608 107.848ZM99.984 130.504H100.984V129.941L100.502 129.649L99.984 130.504ZM99.984 143.048L99.4725 143.907L100.984 144.807V143.048H99.984ZM46.224 111.048H45.224V111.617L45.7125 111.907L46.224 111.048ZM46.224 105.16L46.74 106.017L100.5 73.6326L99.984 72.776L99.468 71.9194L45.708 104.303L46.224 105.16ZM99.984 72.776H98.984V84.808H99.984H100.984V72.776H99.984ZM99.984 84.808L99.4593 83.9567L62.0833 106.997L62.608 107.848L63.1327 108.699L100.509 85.6593L99.984 84.808ZM62.608 107.848L62.0896 108.703L99.4656 131.359L99.984 130.504L100.502 129.649L63.1264 106.993L62.608 107.848ZM99.984 130.504H98.984V143.048H99.984H100.984V130.504H99.984ZM99.984 143.048L100.495 142.189L46.7355 110.189L46.224 111.048L45.7125 111.907L99.4725 143.907L99.984 143.048ZM46.224 111.048H47.224V105.16H46.224H45.224V111.048H46.224Z" fill="#00D4FE" mask="url(#path-5-outside-2_53_24)"></path>
</svg><style>@media (prefers-color-scheme: light) { :root { filter: none; } }
@media (prefers-color-scheme: dark) { :root { filter: none; } }
</style></svg>